<svg width="402" height="48" viewBox="0 0 402 48" fill="none" xmlns="http://www.w3.org/2000/svg">
<path d="M3 0V48" stroke="url(#paint0_linear_1_195)" stroke-width="5"/>
<path d="M27.54 35L19.7 7H25.5L30.86 27.76L36.7 7H41.42L47.3 27.76L52.66 7H58.46L50.62 35H44.34L39.06 16.52L33.82 35H27.54ZM71.7597 14.44C73.9463 14.44 75.7463 15.1733 77.1597 16.64C78.5997 18.1067 79.3197 20.1333 79.3197 22.72V35H74.1597V23.36C74.1597 22.0267 73.7997 21.0133 73.0797 20.32C72.3597 19.6 71.3997 19.24 70.1997 19.24C68.8663 19.24 67.7997 19.6533 66.9997 20.48C66.1997 21.3067 65.7997 22.5467 65.7997 24.2V35H60.6397V7H65.7997V17.24C67.053 15.3733 69.0397 14.44 71.7597 14.44ZM96.3359 15H101.856L94.5759 35C93.5359 37.88 92.1492 39.96 90.4159 41.24C88.7092 42.5467 86.5759 43.1333 84.0159 43V38.2C85.4026 38.2267 86.4959 37.9333 87.2959 37.32C88.1226 36.7067 88.7759 35.72 89.2559 34.36L81.0559 15H86.6959L91.8959 28.44L96.3359 15ZM123.832 35.56C120.818 35.56 118.298 34.5467 116.272 32.52C114.272 30.4933 113.272 27.9867 113.272 25C113.272 22.0133 114.272 19.5067 116.272 17.48C118.298 15.4533 120.818 14.44 123.832 14.44C125.778 14.44 127.552 14.9067 129.152 15.84C130.752 16.7733 131.965 18.0267 132.792 19.6L128.352 22.2C127.952 21.3733 127.338 20.72 126.512 20.24C125.712 19.76 124.805 19.52 123.792 19.52C122.245 19.52 120.965 20.04 119.952 21.08C118.938 22.0933 118.432 23.4 118.432 25C118.432 26.5733 118.938 27.88 119.952 28.92C120.965 29.9333 122.245 30.44 123.792 30.44C124.832 30.44 125.752 30.2133 126.552 29.76C127.378 29.28 127.992 28.6267 128.392 27.8L132.872 30.36C131.992 31.9333 130.752 33.2 129.152 34.16C127.552 35.0933 125.778 35.56 123.832 35.56ZM146.721 14.44C148.907 14.44 150.707 15.1733 152.121 16.64C153.561 18.1067 154.281 20.1333 154.281 22.72V35H149.121V23.36C149.121 22.0267 148.761 21.0133 148.041 20.32C147.321 19.6 146.361 19.24 145.161 19.24C143.827 19.24 142.761 19.6533 141.961 20.48C141.161 21.3067 140.761 22.5467 140.761 24.2V35H135.601V7H140.761V17.24C142.014 15.3733 144.001 14.44 146.721 14.44ZM175.727 32.52C173.673 34.5467 171.167 35.56 168.207 35.56C165.247 35.56 162.74 34.5467 160.687 32.52C158.66 30.4667 157.647 27.96 157.647 25C157.647 22.04 158.66 19.5467 160.687 17.52C162.74 15.4667 165.247 14.44 168.207 14.44C171.167 14.44 173.673 15.4667 175.727 17.52C177.78 19.5467 178.807 22.04 178.807 25C178.807 27.96 177.78 30.4667 175.727 32.52ZM164.327 28.96C165.367 30 166.66 30.52 168.207 30.52C169.753 30.52 171.047 30 172.087 28.96C173.127 27.92 173.647 26.6 173.647 25C173.647 23.4 173.127 22.08 172.087 21.04C171.047 20 169.753 19.48 168.207 19.48C166.66 19.48 165.367 20 164.327 21.04C163.313 22.08 162.807 23.4 162.807 25C162.807 26.6 163.313 27.92 164.327 28.96ZM199.477 32.52C197.423 34.5467 194.917 35.56 191.957 35.56C188.997 35.56 186.49 34.5467 184.437 32.52C182.41 30.4667 181.397 27.96 181.397 25C181.397 22.04 182.41 19.5467 184.437 17.52C186.49 15.4667 188.997 14.44 191.957 14.44C194.917 14.44 197.423 15.4667 199.477 17.52C201.53 19.5467 202.557 22.04 202.557 25C202.557 27.96 201.53 30.4667 199.477 32.52ZM188.077 28.96C189.117 30 190.41 30.52 191.957 30.52C193.503 30.52 194.797 30 195.837 28.96C196.877 27.92 197.397 26.6 197.397 25C197.397 23.4 196.877 22.08 195.837 21.04C194.797 20 193.503 19.48 191.957 19.48C190.41 19.48 189.117 20 188.077 21.04C187.063 22.08 186.557 23.4 186.557 25C186.557 26.6 187.063 27.92 188.077 28.96ZM210.517 20.68C210.517 21.2133 210.864 21.6533 211.557 22C212.277 22.32 213.144 22.6133 214.157 22.88C215.17 23.12 216.184 23.44 217.197 23.84C218.21 24.2133 219.064 24.8533 219.757 25.76C220.477 26.6667 220.837 27.8 220.837 29.16C220.837 31.2133 220.064 32.8 218.517 33.92C216.997 35.0133 215.09 35.56 212.797 35.56C208.69 35.56 205.89 33.9733 204.397 30.8L208.877 28.28C209.464 30.0133 210.77 30.88 212.797 30.88C214.637 30.88 215.557 30.3067 215.557 29.16C215.557 28.6267 215.197 28.2 214.477 27.88C213.784 27.5333 212.93 27.2267 211.917 26.96C210.904 26.6933 209.89 26.36 208.877 25.96C207.864 25.56 206.997 24.9333 206.277 24.08C205.584 23.2 205.237 22.1067 205.237 20.8C205.237 18.8267 205.957 17.28 207.397 16.16C208.864 15.0133 210.677 14.44 212.837 14.44C214.464 14.44 215.944 14.8133 217.277 15.56C218.61 16.28 219.664 17.32 220.437 18.68L216.037 21.08C215.397 19.72 214.33 19.04 212.837 19.04C212.17 19.04 211.61 19.1867 211.157 19.48C210.73 19.7733 210.517 20.1733 210.517 20.68ZM228.242 27.12C228.935 29.6267 230.815 30.88 233.882 30.88C235.855 30.88 237.349 30.2133 238.362 28.88L242.522 31.28C240.549 34.1333 237.642 35.56 233.802 35.56C230.495 35.56 227.842 34.56 225.842 32.56C223.842 30.56 222.842 28.04 222.842 25C222.842 21.9867 223.829 19.48 225.802 17.48C227.775 15.4533 230.309 14.44 233.402 14.44C236.335 14.44 238.749 15.4533 240.642 17.48C242.562 19.5067 243.522 22.0133 243.522 25C243.522 25.6667 243.455 26.3733 243.322 27.12H228.242ZM228.162 23.12H238.362C238.069 21.76 237.455 20.7467 236.522 20.08C235.615 19.4133 234.575 19.08 233.402 19.08C232.015 19.08 230.869 19.44 229.962 20.16C229.055 20.8533 228.455 21.84 228.162 23.12Z" fill="#141414"/>
<path d="M266.924 35.56C264.151 35.56 261.817 34.9467 259.924 33.72C258.031 32.4667 256.697 30.7733 255.924 28.64L260.644 25.88C261.737 28.7333 263.884 30.16 267.084 30.16C268.631 30.16 269.764 29.88 270.484 29.32C271.204 28.76 271.564 28.0533 271.564 27.2C271.564 26.2133 271.124 25.4533 270.244 24.92C269.364 24.36 267.791 23.76 265.524 23.12C264.271 22.7467 263.204 22.3733 262.324 22C261.471 21.6267 260.604 21.1333 259.724 20.52C258.871 19.88 258.217 19.08 257.764 18.12C257.311 17.16 257.084 16.04 257.084 14.76C257.084 12.2267 257.977 10.2133 259.764 8.72C261.577 7.2 263.751 6.44 266.284 6.44C268.551 6.44 270.537 7 272.244 8.12C273.977 9.21333 275.324 10.7467 276.284 12.72L271.644 15.4C270.524 13 268.737 11.8 266.284 11.8C265.137 11.8 264.231 12.0667 263.564 12.6C262.924 13.1067 262.604 13.7733 262.604 14.6C262.604 15.48 262.964 16.2 263.684 16.76C264.431 17.2933 265.844 17.88 267.924 18.52C268.777 18.7867 269.417 19 269.844 19.16C270.297 19.2933 270.897 19.52 271.644 19.84C272.417 20.1333 273.004 20.4133 273.404 20.68C273.831 20.9467 274.311 21.3067 274.844 21.76C275.377 22.2133 275.777 22.68 276.044 23.16C276.337 23.64 276.577 24.2267 276.764 24.92C276.977 25.5867 277.084 26.32 277.084 27.12C277.084 29.7067 276.137 31.76 274.244 33.28C272.377 34.8 269.937 35.56 266.924 35.56ZM290.511 35.56C287.498 35.56 284.978 34.5467 282.951 32.52C280.951 30.4933 279.951 27.9867 279.951 25C279.951 22.0133 280.951 19.5067 282.951 17.48C284.978 15.4533 287.498 14.44 290.511 14.44C292.458 14.44 294.231 14.9067 295.831 15.84C297.431 16.7733 298.645 18.0267 299.471 19.6L295.031 22.2C294.631 21.3733 294.018 20.72 293.191 20.24C292.391 19.76 291.485 19.52 290.471 19.52C288.925 19.52 287.645 20.04 286.631 21.08C285.618 22.0933 285.111 23.4 285.111 25C285.111 26.5733 285.618 27.88 286.631 28.92C287.645 29.9333 288.925 30.44 290.471 30.44C291.511 30.44 292.431 30.2133 293.231 29.76C294.058 29.28 294.671 28.6267 295.071 27.8L299.551 30.36C298.671 31.9333 297.431 33.2 295.831 34.16C294.231 35.0933 292.458 35.56 290.511 35.56ZM304.84 12.6C303.987 12.6 303.24 12.2933 302.6 11.68C301.987 11.04 301.68 10.2933 301.68 9.44C301.68 8.58667 301.987 7.84 302.6 7.2C303.24 6.56 303.987 6.24 304.84 6.24C305.72 6.24 306.467 6.56 307.08 7.2C307.72 7.84 308.04 8.58667 308.04 9.44C308.04 10.2933 307.72 11.04 307.08 11.68C306.467 12.2933 305.72 12.6 304.84 12.6ZM302.28 35V15H307.44V35H302.28ZM316.767 20.68C316.767 21.2133 317.114 21.6533 317.807 22C318.527 22.32 319.394 22.6133 320.407 22.88C321.42 23.12 322.434 23.44 323.447 23.84C324.46 24.2133 325.314 24.8533 326.007 25.76C326.727 26.6667 327.087 27.8 327.087 29.16C327.087 31.2133 326.314 32.8 324.767 33.92C323.247 35.0133 321.34 35.56 319.047 35.56C314.94 35.56 312.14 33.9733 310.647 30.8L315.127 28.28C315.714 30.0133 317.02 30.88 319.047 30.88C320.887 30.88 321.807 30.3067 321.807 29.16C321.807 28.6267 321.447 28.2 320.727 27.88C320.034 27.5333 319.18 27.2267 318.167 26.96C317.154 26.6933 316.14 26.36 315.127 25.96C314.114 25.56 313.247 24.9333 312.527 24.08C311.834 23.2 311.487 22.1067 311.487 20.8C311.487 18.8267 312.207 17.28 313.647 16.16C315.114 15.0133 316.927 14.44 319.087 14.44C320.714 14.44 322.194 14.8133 323.527 15.56C324.86 16.28 325.914 17.32 326.687 18.68L322.287 21.08C321.647 19.72 320.58 19.04 319.087 19.04C318.42 19.04 317.86 19.1867 317.407 19.48C316.98 19.7733 316.767 20.1733 316.767 20.68ZM334.111 20.68C334.111 21.2133 334.457 21.6533 335.151 22C335.871 22.32 336.737 22.6133 337.751 22.88C338.764 23.12 339.777 23.44 340.791 23.84C341.804 24.2133 342.657 24.8533 343.351 25.76C344.071 26.6667 344.431 27.8 344.431 29.16C344.431 31.2133 343.657 32.8 342.111 33.92C340.591 35.0133 338.684 35.56 336.391 35.56C332.284 35.56 329.484 33.9733 327.991 30.8L332.471 28.28C333.057 30.0133 334.364 30.88 336.391 30.88C338.231 30.88 339.151 30.3067 339.151 29.16C339.151 28.6267 338.791 28.2 338.071 27.88C337.377 27.5333 336.524 27.2267 335.511 26.96C334.497 26.6933 333.484 26.36 332.471 25.96C331.457 25.56 330.591 24.9333 329.871 24.08C329.177 23.2 328.831 22.1067 328.831 20.8C328.831 18.8267 329.551 17.28 330.991 16.16C332.457 15.0133 334.271 14.44 336.431 14.44C338.057 14.44 339.537 14.8133 340.871 15.56C342.204 16.28 343.257 17.32 344.031 18.68L339.631 21.08C338.991 19.72 337.924 19.04 336.431 19.04C335.764 19.04 335.204 19.1867 334.751 19.48C334.324 19.7733 334.111 20.1733 334.111 20.68ZM364.516 32.52C362.462 34.5467 359.956 35.56 356.996 35.56C354.036 35.56 351.529 34.5467 349.476 32.52C347.449 30.4667 346.436 27.96 346.436 25C346.436 22.04 347.449 19.5467 349.476 17.52C351.529 15.4667 354.036 14.44 356.996 14.44C359.956 14.44 362.462 15.4667 364.516 17.52C366.569 19.5467 367.596 22.04 367.596 25C367.596 27.96 366.569 30.4667 364.516 32.52ZM353.116 28.96C354.156 30 355.449 30.52 356.996 30.52C358.542 30.52 359.836 30 360.876 28.96C361.916 27.92 362.436 26.6 362.436 25C362.436 23.4 361.916 22.08 360.876 21.04C359.836 20 358.542 19.48 356.996 19.48C355.449 19.48 354.156 20 353.116 21.04C352.102 22.08 351.596 23.4 351.596 25C351.596 26.6 352.102 27.92 353.116 28.96ZM376.386 18.44C376.866 17.16 377.652 16.2 378.746 15.56C379.866 14.92 381.106 14.6 382.466 14.6V20.36C380.892 20.1733 379.479 20.4933 378.226 21.32C376.999 22.1467 376.386 23.52 376.386 25.44V35H371.226V15H376.386V18.44ZM389.618 20.68C389.618 21.2133 389.965 21.6533 390.658 22C391.378 22.32 392.245 22.6133 393.258 22.88C394.272 23.12 395.285 23.44 396.298 23.84C397.312 24.2133 398.165 24.8533 398.858 25.76C399.578 26.6667 399.938 27.8 399.938 29.16C399.938 31.2133 399.165 32.8 397.618 33.92C396.098 35.0133 394.192 35.56 391.898 35.56C387.792 35.56 384.992 33.9733 383.498 30.8L387.978 28.28C388.565 30.0133 389.872 30.88 391.898 30.88C393.738 30.88 394.658 30.3067 394.658 29.16C394.658 28.6267 394.298 28.2 393.578 27.88C392.885 27.5333 392.032 27.2267 391.018 26.96C390.005 26.6933 388.992 26.36 387.978 25.96C386.965 25.56 386.098 24.9333 385.378 24.08C384.685 23.2 384.338 22.1067 384.338 20.8C384.338 18.8267 385.058 17.28 386.498 16.16C387.965 15.0133 389.778 14.44 391.938 14.44C393.565 14.44 395.045 14.8133 396.378 15.56C397.712 16.28 398.765 17.32 399.538 18.68L395.138 21.08C394.498 19.72 393.432 19.04 391.938 19.04C391.272 19.04 390.712 19.1867 390.258 19.48C389.832 19.7733 389.618 20.1733 389.618 20.68Z" fill="#005AE2"/>
<defs>
<linearGradient id="paint0_linear_1_195" x1="3.05" y1="0" x2="3.05" y2="48" gradientUnits="userSpaceOnUse">
<stop stop-color="#112232"/>
<stop offset="1" stop-color="#4D6B88" stop-opacity="0"/>
</linearGradient>
</defs>
</svg>
